<svg xmlns="http://www.w3.org/2000/svg" width="226.771" height="70.699" viewBox="0 0 226.771 70.699" overflow="visible"><path fill="#9FC65D" d="M218.354 3.06l-1.482 1.774c-.48.64-.973 1.3-1.48 1.984-1.018 1.356-2.094 2.782-3.07 4.347-.508.77-1.02 1.55-1.54 2.34-.478.817-.957 1.646-1.438 2.478-1.004 1.64-1.856 3.405-2.737 5.137-.84 1.758-1.628 3.532-2.342 5.305-.705 1.777-1.36 3.53-1.91 5.268-.585 1.716-1.055 3.412-1.505 5.02-.434 1.616-.823 3.16-1.167 4.6-.195.83-.387 1.612-.562 2.36 32.9-9.298 31.36-8.083 21.3-43.053-.65.743-1.31 1.56-2.06 2.44m-23.72 31.57c.67-1.636 1.37-3.367 2.2-5.118.79-1.765 1.7-3.546 2.66-5.337.97-1.78 2.02-3.56 3.11-5.298 1.14-1.715 2.23-3.443 3.47-5.038.61-.81 1.2-1.61 1.79-2.4.63-.76 1.26-1.5 1.87-2.24 1.19-1.5 2.46-2.83 3.66-4.1l1.74-1.85 1.72-1.63c.61-.58 1.18-1.12 1.73-1.65-33.71 9.59-34.24 8.1-25.41 38.51.45-1.23.94-2.51 1.48-3.88"/><path fill="#3A3A3A" d="M3.758 36.82H.308c-.102-.446-.18-.918-.23-1.418-.053-.497-.078-.97-.078-1.414 0-.93.104-1.838.307-2.73h10.607v26.62c-1.235.207-2.435.31-3.604.31-1.13 0-2.315-.103-3.552-.31v-21.06zm-1.08-10.04c-.205-1.17-.308-2.317-.308-3.452 0-1.098.103-2.248.307-3.45.583-.104 1.208-.18 1.88-.23.667-.052 1.28-.077 1.826-.077.585 0 1.22.03 1.904.08.688.05 1.32.13 1.904.23.11.59.18 1.16.21 1.73.04.57.05 1.15.05 1.73 0 .55-.01 1.12-.05 1.7-.03.59-.1 1.17-.21 1.76-.58.1-1.2.17-1.87.21-.67.04-1.29.05-1.88.05-.55 0-1.16-.02-1.85-.05-.69-.03-1.32-.1-1.9-.2m15.45 4.48c.48-.1.96-.18 1.44-.23.48-.05 1.02-.08 1.6-.08.59 0 1.1.03 1.55.08.45.05.91.13 1.39.23.11.17.2.42.29.75.08.33.16.67.23 1.03s.13.71.18 1.05c.05.34.1.64.13.88.35-.52.76-1.03 1.24-1.54.48-.52 1.04-.98 1.68-1.39.64-.41 1.35-.75 2.14-1s1.67-.38 2.63-.38c3.02 0 5.3.82 6.83 2.47 1.53 1.65 2.29 4.24 2.29 7.77v17c-1.23.21-2.45.31-3.66.31-1.2 0-2.41-.1-3.65-.31V42.85c0-1.854-.28-3.275-.84-4.273-.57-.993-1.56-1.493-2.96-1.493-.58 0-1.18.087-1.8.26-.62.17-1.18.507-1.67 1.004-.5.494-.9 1.19-1.21 2.082-.3.892-.46 2.058-.46 3.5v13.95c-1.24.206-2.45.308-3.66.308-1.2 0-2.42-.102-3.65-.31V31.26zm30.07-.05c.48-.1.96-.17 1.42-.21.47-.03.99-.05 1.57-.05.96 0 1.94.1 2.94.31.11.17.2.42.29.75.08.33.17.68.26 1.06s.15.75.21 1.11c.06.36.1.67.13.91.31-.55.69-1.09 1.13-1.62.45-.53.99-1 1.63-1.41.64-.41 1.35-.74 2.14-1 .79-.25 1.67-.38 2.63-.38 1.48 0 2.86.27 4.15.82 1.29.55 2.41 1.38 3.38 2.5.96 1.11 1.71 2.51 2.24 4.2.53 1.68.8 3.67.8 5.97 0 2.23-.33 4.23-.98 5.99-.65 1.77-1.59 3.27-2.83 4.51-1.24 1.238-2.75 2.19-4.53 2.86-1.78.67-3.81 1-6.07 1-.58 0-1.15-.02-1.72-.07-.57-.06-1.04-.11-1.42-.19v11.8c-.65.11-1.28.18-1.88.21-.6.03-1.19.06-1.78.06s-1.17-.02-1.77-.052c-.6-.032-1.22-.103-1.88-.21V31.21zm7.31 21c.93.28 2 .42 3.2.42 2.13 0 3.76-.69 4.89-2.06 1.14-1.37 1.7-3.45 1.7-6.23 0-1.06-.08-2.05-.26-2.95-.17-.91-.46-1.69-.87-2.34-.41-.65-.94-1.16-1.57-1.54-.64-.38-1.42-.57-2.34-.57-.85 0-1.58.17-2.18.49-.6.33-1.09.78-1.47 1.34-.37.57-.65 1.23-.82 1.98-.17.76-.25 1.56-.25 2.42v9.06zm28.41-5.93c-1.92-.55-3.42-1.36-4.5-2.44s-1.62-2.7-1.62-4.87c0-2.61.94-4.65 2.81-6.13 1.87-1.47 4.42-2.21 7.65-2.21 1.34 0 2.66.12 3.96.36 1.31.25 2.63.6 3.97 1.09-.07.89-.24 1.82-.52 2.78-.27.96-.6 1.81-.97 2.53-.82-.34-1.73-.64-2.73-.89-.99-.26-2.04-.39-3.14-.39-1.16 0-2.08.19-2.73.55-.65.36-.97.94-.97 1.73 0 .76.23 1.29.7 1.6.47.31 1.13.6 1.99.87l2.94.88c.96.28 1.83.62 2.6 1.01.77.4 1.43.89 1.98 1.47.55.59.98 1.31 1.29 2.17.31.86.47 1.906.47 3.145 0 1.268-.27 2.45-.792 3.55-.536 1.1-1.306 2.05-2.32 2.86-1.01.806-2.24 1.44-3.68 1.9-1.443.466-3.074.695-4.89.695-.826 0-1.584-.03-2.266-.08-.69-.05-1.35-.14-1.982-.26-.64-.12-1.27-.266-1.88-.43-.62-.17-1.29-.39-2.01-.67.06-.92.23-1.86.48-2.8.26-.95.59-1.868 1-2.76 1.13.443 2.2.78 3.22 1.002 1.01.22 2.068.33 3.16.33.48 0 1.01-.045 1.58-.13.56-.086 1.09-.24 1.57-.463.48-.22.88-.52 1.21-.88.33-.36.49-.83.49-1.41 0-.82-.25-1.42-.75-1.78-.5-.36-1.19-.68-2.082-.95l-3.195-.93zm15.45-15.04c.79-.17 1.49-.26 2.09-.28.6-.01 1.16-.02 1.68-.02.69 0 1.39.02 2.11.05.72.04 1.38.13 1.96.26l5.56 23.22 6.28-23.22c1.14-.2 2.3-.31 3.5-.31.52 0 1.06.01 1.65.03.58.02 1.3.11 2.16.29l-9.94 32.91c-.41 1.31-.89 2.39-1.46 3.25-.57.86-1.21 1.53-1.93 2.01-.72.48-1.53.82-2.42 1-.89.19-1.86.29-2.89.29-.96 0-1.83-.06-2.6-.18s-1.54-.28-2.29-.49c-.04-.17-.05-.31-.05-.43v-.38c0-.82.09-1.6.28-2.34.19-.74.42-1.45.69-2.14.31.1.72.2 1.23.28.52.09 1.03.13 1.55.13.41 0 .82-.02 1.24-.08.42-.05.82-.2 1.22-.46.39-.25.76-.66 1.1-1.21.34-.55.65-1.32.93-2.31l.87-3.19c-.38.03-.79.06-1.26.08-.46.02-.93.03-1.41.03h-1.08c-.34 0-.65-.04-.93-.1l-7.83-26.61zm46.19-11.01c.62-.11 1.23-.17 1.83-.21.6-.03 1.19-.05 1.78-.05.58 0 1.18.02 1.81.05.62.04 1.24.1 1.86.21V57c-1.61.48-3.25.85-4.92 1.106s-3.69.384-6.06.384c-1.81 0-3.56-.247-5.22-.744-1.66-.498-3.13-1.288-4.4-2.37-1.27-1.08-2.27-2.48-3.01-4.195-.73-1.71-1.1-3.81-1.1-6.28 0-1.95.31-3.8.95-5.53.64-1.73 1.55-3.23 2.73-4.5s2.61-2.27 4.3-3.01c1.68-.73 3.55-1.11 5.61-1.11.62 0 1.26.03 1.93.08.67.05 1.31.17 1.93.34V20.24zm0 16.53c-.68-.18-1.24-.29-1.67-.34-.42-.05-.96-.08-1.61-.08-1.13 0-2.12.23-2.96.7-.85.46-1.54 1.08-2.09 1.86-.55.77-.95 1.69-1.21 2.73-.26 1.05-.39 2.14-.39 3.27 0 1.41.17 2.6.51 3.58.35.98.82 1.76 1.42 2.34.6.59 1.31 1.01 2.14 1.26.82.27 1.71.4 2.67.4.59 0 1.12-.03 1.61-.08.48-.05 1.01-.16 1.6-.33V36.8zm19.38 10.03c.14 2.06.86 3.56 2.16 4.48 1.31.93 3.02 1.39 5.16 1.39 1.17 0 2.36-.11 3.58-.33 1.22-.22 2.38-.54 3.48-.95.38.69.7 1.51.98 2.47.28.96.43 1.99.47 3.09-2.67 1.03-5.69 1.55-9.06 1.55-2.47 0-4.59-.34-6.36-1.02-1.76-.69-3.21-1.64-4.32-2.86-1.11-1.21-1.94-2.67-2.47-4.35-.53-1.68-.79-3.51-.79-5.51 0-1.96.27-3.79.82-5.51.55-1.71 1.37-3.21 2.45-4.48 1.08-1.26 2.42-2.27 4.02-3.01 1.6-.73 3.46-1.11 5.59-1.11 1.85 0 3.5.33 4.94.99 1.44.65 2.67 1.54 3.68 2.67 1.01 1.14 1.78 2.48 2.29 4.05.52 1.56.78 3.24.78 5.02 0 .66-.03 1.3-.08 1.93-.05.64-.11 1.15-.18 1.52h-17.1zm10.46-5.1c-.07-1.64-.52-2.98-1.36-3.99-.84-1.01-2.01-1.52-3.52-1.52-1.72 0-3.02.48-3.92 1.44-.89.96-1.42 2.32-1.6 4.07h10.4zm11.87 16.32c-.2-1.16-.31-2.31-.31-3.45 0-1.1.1-2.25.31-3.45.59-.1 1.21-.18 1.88-.23.67-.05 1.28-.07 1.83-.07.59 0 1.22.03 1.91.08.69.06 1.32.13 1.9.23.1.59.18 1.17.21 1.73.04.56.05 1.14.05 1.73 0 .55-.01 1.12-.05 1.7-.03.59-.1 1.17-.2 1.75-.58.11-1.2.18-1.87.21-.67.03-1.29.05-1.88.05-.55 0-1.16-.02-1.85-.05-.69-.03-1.32-.1-1.9-.21"/></svg>